<?xml version="1.0" encoding="UTF-8"?>
<svg enable-background="new 0 0 947.43 1000" version="1.1" viewBox="0 0 889.397 1000" xml:space="preserve" xmlns="http://www.w3.org/2000/svg">
<path d="m242.444 920.788v-51.414h-22.166v54.453c0 15.052-5.505 20.203-19.238 20.203-13.562 0-19.072-5.151-19.072-20.203v-54.453h-22.155v51.414c0 27.71 8.99 44.058 41.228 44.058 32.165 0 41.403-16.348 41.403-44.058m101.963 42.171v-58.684c0-26.065-13.033-36.468-38.553-36.468-23.297 0-42.595 2.068-42.595 17.666v77.485h22.05v-70.321c0-3.993 11.378-4.814 17.611-4.814 20.01 0 19.618 8.681 19.618 16.943v58.192h21.869zm427.364-568.533c-22.096 29.301-57.189 48.238-96.707 48.238-66.863 0-121.051-54.203-121.051-121.049 0-52.426 33.34-97.062 79.967-113.887-36.947-19.434-79.014-30.47-123.671-30.47-146.863 0-265.918 119.049-265.918 265.901 0 146.85 119.055 265.904 265.918 265.904 146.88 0 265.935-119.055 265.935-265.904 0-16.647-1.545-32.931-4.473-48.733m-120.296 485.482v83.084h22.515v-70.122c0-5.494 13.832-5.328 26.43-5.511v-19.508c-1e-3 1e-3 -48.945-2.018-48.945 12.057m-206.528-123.179c8.637 0 17.224-0.293 25.724-0.86-174.264-10.479-312.357-155.081-312.357-331.943 0-183.675 148.92-332.568 332.615-332.568 175.863 0 319.831 136.478 331.794 309.283 0.431-7.372 0.646-14.792 0.646-22.271-2e-3 -208.974-169.423-378.37-378.422-378.37-208.994 0-378.41 169.396-378.41 378.369 0 208.96 169.416 378.36 378.41 378.36m-351.247 123.179v83.084h22.508v-70.067c0-5.549 13.739-5.383 26.319-5.565v-19.508c1e-3 0-48.827-1.98-48.827 12.056m-22.083 60.863c-6.977 2.852-14.715 4.722-23.363 4.722-15.84 0-25.646-4.914-25.646-29.027 0-24.301 9.806-29 25.646-29 8.648 0 16.386 1.677 23.363 4.506v-18.842c-8.113-3.221-17.164-5.278-27.152-5.278-28.636 0-44.465 17.313-44.465 48.613 0 31.267 15.829 48.425 44.465 48.425 9.988 0 19.039-2.091 27.152-5.278zm682.659-72.72c-28.619 0-44.471 17.114-44.471 48.392 0 31.272 15.852 48.403 44.471 48.403s44.492-17.131 44.492-48.403c1e-3 -31.278-15.872-48.392-44.492-48.392m0 78.164c-13.392 0-21.847-4.887-21.847-29.772 0-24.869 8.455-29.75 21.847-29.75 13.38 0 21.852 4.881 21.852 29.75 0 24.885-8.472 29.772-21.852 29.772m63.796 16.777h22.525v-129.303h-22.525zm48.801 0h22.524v-129.303h-22.524zm-355.411-58.176v58.176h22.326v-56.301c0-24.4-15.354-38.84-41.464-38.84-7.309 0-13.508 1.12-18.764 3.178v-37.34h-22.525v129.303h22.525v-72.461c3.739-1.666 8.824-2.824 15.013-2.824 21.036 0 22.889 8.842 22.889 17.109m-152.34 11.698c0 31.312 15.846 48.47 44.515 48.47 9.988 0 19.056-2.085 27.157-5.278v-18.874c-6.982 2.868-14.709 4.732-23.385 4.732-15.852 0-25.646-4.92-25.646-29.05 0-24.328 9.795-29.049 25.646-29.049 8.676 0 16.402 1.693 23.385 4.506v-18.841c-8.102-3.221-17.169-5.278-27.157-5.278-28.669 0-44.515 17.313-44.515 48.662m232.291 18.13-21.014-65.27h-23.859l33.61 88.742c-1.197 3.315 0 0.012-17.114 41.867l23.556 0.017 13.641-34.758 35.64-95.868h-23.833z" fill="#f27623"/>
</svg>
